<?xml version="1.0" encoding="UTF-8" standalone="no"?>
<!-- Created with Inkscape (http://www.inkscape.org/) -->

<svg
   width="512"
   height="512"
   viewBox="0 0 135.46667 135.46667"
   version="1.1"
   id="svg5"
   inkscape:version="1.1.1 (3bf5ae0d25, 2021-09-20)"
   sodipodi:docname="eyecareVec.svg"
   inkscape:export-filename="C:\Users\zoser\Desktop\Icons\New\appIcon\AppIcon1024.png"
   inkscape:export-xdpi="192.00002"
   inkscape:export-ydpi="192.00002"
   xmlns:inkscape="http://www.inkscape.org/namespaces/inkscape"
   xmlns:sodipodi="http://sodipodi.sourceforge.net/DTD/sodipodi-0.dtd"
   xmlns="http://www.w3.org/2000/svg"
   xmlns:svg="http://www.w3.org/2000/svg">
  <sodipodi:namedview
     id="namedview7"
     pagecolor="#ffffff"
     bordercolor="#666666"
     borderopacity="1.0"
     inkscape:pageshadow="2"
     inkscape:pageopacity="0.0"
     inkscape:pagecheckerboard="0"
     inkscape:document-units="mm"
     showgrid="false"
     inkscape:snap-global="false"
     inkscape:zoom="0.5342947"
     inkscape:cx="451.99775"
     inkscape:cy="502.53166"
     inkscape:window-width="1920"
     inkscape:window-height="1027"
     inkscape:window-x="3832"
     inkscape:window-y="-8"
     inkscape:window-maximized="1"
     inkscape:current-layer="layer1"
     units="px"
     width="512px" />
  <defs
     id="defs2" />
  <g
     inkscape:label="Layer 1"
     inkscape:groupmode="layer"
     id="layer1">
    <rect
       style="fill:#ffffff;stroke-width:2"
       id="rect1033"
       width="155.98834"
       height="151.03633"
       x="-7.4280167"
       y="-6.9328156"
       ry="0.6252951" />
    <g
       id="g1009"
       transform="matrix(0.83988547,0,0,0.83988547,-21.197774,-47.738995)">
      <path
         id="path25793"
         style="opacity:1;fill:#239cd6;fill-opacity:1;stroke:none;stroke-width:3.77953"
         d="m 399.69922,229.07227 c -161.39548,7e-5 -292.23235,130.83694 -292.23242,292.23242 7e-5,161.39548 130.83694,292.23235 292.23242,292.23242 161.39548,-7e-5 292.23235,-130.83694 292.23242,-292.23242 -7e-5,-161.39548 -130.83694,-292.23235 -292.23242,-292.23242 z"
         sodipodi:nodetypes="ccssc"
         inkscape:export-filename="C:\Users\zoser\Desktop\Icons\main.png"
         inkscape:export-xdpi="80.852684"
         inkscape:export-ydpi="80.852684"
         transform="scale(0.26458333)" />
      <path
         id="path860"
         style="opacity:0.833333;fill:#228ec9;fill-opacity:1;stroke:none;stroke-width:3.77953"
         d="M 399.69922,229.07227 A 292.23255,292.23255 0 0 0 107.4668,521.30469 292.23255,292.23255 0 0 0 399.69922,813.53711 292.23255,292.23255 0 0 0 691.93164,521.30469 292.23255,292.23255 0 0 0 399.69922,229.07227 Z m 0,35.59179 A 256.64065,256.64065 0 0 1 656.33984,521.30469 256.64065,256.64065 0 0 1 399.69922,777.94531 256.64065,256.64065 0 0 1 143.05859,521.30469 256.64065,256.64065 0 0 1 399.69922,264.66406 Z"
         inkscape:export-filename="C:\Users\zoser\Desktop\Icons\main.png"
         inkscape:export-xdpi="80.852684"
         inkscape:export-ydpi="80.852684"
         transform="scale(0.26458333)" />
      <path
         id="path1519"
         style="opacity:1;fill:#eef3f5;fill-opacity:1;stroke:none;stroke-width:3.77953"
         d="m 399.69922,264.66406 c -141.7387,10e-6 -256.64062,114.90193 -256.64063,256.64063 2e-5,141.7387 114.90193,256.64061 256.64063,256.64062 141.73869,-2e-5 256.6406,-114.90193 256.64062,-256.64062 -10e-6,-141.7387 -114.90192,-256.64061 -256.64062,-256.64063 z m 4.02539,28.15821 c 12.07638,-0.0773 24.40574,0.85942 36.90625,2.99023 L 482.7168,407.60547 287.66016,324.10742 c 33.02409,-17.8134 72.93454,-31.00919 116.06445,-31.28515 z m 53.5918,10.84961 c 46.11673,13.41496 94.96522,40.13791 128.8457,87.17578 l -48.45703,109.18359 z m -189.69727,31.99414 109.34961,48.08007 -196.08203,81.0625 c 13.25644,-46.16262 39.81125,-95.10066 86.73242,-129.14257 z m 328.46094,73.66796 c 22.38629,42.49202 37.09665,96.19322 26.79687,153.24024 l -112.20117,40.99023 z m -308.52344,30.15625 -80.27148,196.40821 c -23.49479,-41.8893 -39.61014,-95.18648 -30.8125,-152.48438 z m -23.60547,103.4961 81.07227,196.08008 C 298.86024,725.81202 249.919,699.25755 215.875,652.33789 Z m 353.73242,35.57617 c -13.42242,46.11466 -40.1539,94.9572 -87.19726,128.83008 L 421.31055,658.91797 Z m -298.04297,53.47266 194.93946,83.77343 c -42.30316,22.74135 -95.88043,37.90179 -153.01172,28.08008 z"
         inkscape:export-filename="C:\Users\zoser\Desktop\Icons\main.png"
         inkscape:export-xdpi="80.852684"
         inkscape:export-ydpi="80.852684"
         transform="scale(0.26458333)" />
      <path
         id="path2475"
         style="opacity:0.25;fill:#ffffff;fill-opacity:1;stroke:none;stroke-width:0.418278"
         d="m 105.75375,105.58738 c -17.861521,1e-5 -32.341144,14.47963 -32.341156,32.34115 7e-6,17.86153 14.479631,32.34115 32.341156,32.34116 17.86153,-1e-5 32.34115,-14.47963 32.34116,-32.34116 -1e-5,-17.86152 -14.47964,-32.34114 -32.34116,-32.34115 z"
         sodipodi:nodetypes="sssss"
         inkscape:export-filename="C:\Users\zoser\Desktop\Icons\main.png"
         inkscape:export-xdpi="80.852684"
         inkscape:export-ydpi="80.852684" />
      <path
         id="path2880"
         style="opacity:1;fill:#d5384d;fill-opacity:1;stroke:none;stroke-width:3.77953"
         d="m 399.69922,421.38086 a 99.924677,99.924677 0 0 0 -99.92383,99.92383 99.924677,99.924677 0 0 0 99.92383,99.92383 99.924677,99.924677 0 0 0 99.92383,-99.92383 99.924677,99.924677 0 0 0 -8.27539,-39.8086 49.490993,49.490993 0 0 1 -43.57227,26.14063 49.490993,49.490993 0 0 1 -49.49023,-49.49219 49.490993,49.490993 0 0 1 15.3789,-35.78125 99.924677,99.924677 0 0 0 -13.96484,-0.98242 z"
         inkscape:export-filename="C:\Users\zoser\Desktop\Icons\main.png"
         inkscape:export-xdpi="80.852684"
         inkscape:export-ydpi="80.852684"
         transform="scale(0.26458333)" />
    </g>
    <g
       id="g39552"
       inkscape:export-filename="C:\Users\zoser\Desktop\Icons\edit.png"
       inkscape:export-xdpi="146.3049"
       inkscape:export-ydpi="146.3049"
       transform="matrix(0.46791514,0,0,0.46791514,-67.668476,-109.15336)">
      <path
         id="rect1008"
         style="fill:#a02c2c;stroke-width:3.77953"
         d="m 223.9707,911.88086 c -11.07855,0 -19.99804,8.9195 -19.99804,19.99805 v 97.32029 c 0,11.0786 8.91949,19.9961 19.99804,19.9961 h 97.32032 c 11.07855,0 19.99804,-8.9175 19.99804,-19.9961 v -81.10545 l -10.66601,10.66602 v 68.77143 c 0,6.0932 -4.90486,11 -10.99805,11 h -93.98828 c -6.09319,0 -10.99805,-4.9068 -10.99805,-11 v -93.98628 c 0,-6.09319 4.90486,-10.99805 10.99805,-10.99804 h 74.16211 l 10.66601,-10.66602 z"
         transform="scale(0.26458333)" />
      <g
         id="g1841"
         transform="rotate(-45,95.80941,316.34585)"
         style="fill:#a02c2c">
        <path
           id="rect1395"
           style="fill:#a02c2c;stroke-width:3.77953"
           d="m 457.60742,965.875 v 32.66211 h 83.32227 V 965.875 Z m 86.98828,0 v 32.66211 h 0.33399 c 9.04747,0 16.33008,-7.28456 16.33008,-16.33203 0,-9.04747 -7.28261,-16.33008 -16.33008,-16.33008 z"
           transform="scale(0.26458333)" />
        <path
           sodipodi:type="star"
           style="fill:#a02c2c;stroke-width:3.77953"
           id="path1757"
           inkscape:flatsided="false"
           sodipodi:sides="3"
           sodipodi:cx="396.28146"
           sodipodi:cy="881.55127"
           sodipodi:r1="43.313557"
           sodipodi:r2="21.656778"
           sodipodi:arg1="0.87802849"
           sodipodi:arg2="1.925226"
           inkscape:rounded="0"
           inkscape:randomized="0"
           d="m 423.94451,914.88024 -35.17915,-13.01828 -35.17915,-13.01828 28.86373,-23.95689 28.86374,-23.9569 6.31541,36.97517 z"
           transform="matrix(0.11261982,0.01935896,-0.01935896,0.11261982,90.208213,152.97037)"
           inkscape:transform-center-x="0.49226992"
           inkscape:transform-center-y="0.16957078" />
      </g>
    </g>
    <rect
       style="fill:none;fill-opacity:1;stroke:none;stroke-width:1.8355;stroke-miterlimit:4;stroke-dasharray:none"
       id="rect36613"
       width="37.389553"
       height="37.389553"
       x="-255.20129"
       y="261.46231"
       ry="0.5260427"
       inkscape:export-filename="C:\Users\zoser\Desktop\Icons\gallery.png"
       inkscape:export-xdpi="179.94293"
       inkscape:export-ydpi="179.94293" />
    <g
       id="g25999"
       transform="translate(-96.257582,-84.388888)"
       style="fill:#ececec;fill-opacity:1"
       inkscape:export-filename="C:\Users\zoser\Desktop\Icons\gallery.png"
       inkscape:export-xdpi="179.94293"
       inkscape:export-ydpi="179.94293">
      <path
         id="rect2076"
         style="fill:#ececec;fill-opacity:1;stroke-width:1"
         d="m -155.60174,346.12514 c -1.51229,0 -2.73007,1.21725 -2.73007,2.72955 v 31.38207 c 0,1.51228 1.21778,2.73005 2.73007,2.73005 h 30.70614 c 1.51229,0 2.72954,-1.21777 2.72954,-2.73005 v -31.38207 c 0,-1.5123 -1.21725,-2.72955 -2.72954,-2.72955 z m 0.12299,1.50792 h 30.46015 c 0.72172,0 1.30225,0.58105 1.30225,1.30276 v 31.17587 c 0,0.72173 -0.58053,1.30278 -1.30225,1.30278 h -30.46015 c -0.72171,0 -1.30276,-0.58105 -1.30276,-1.30278 v -31.17587 c 0,-0.72171 0.58105,-1.30276 1.30276,-1.30276 z m 1.01027,7.08277 c -0.31754,0 -0.57309,0.25554 -0.57309,0.57309 0,0.31755 0.25555,0.57309 0.57309,0.57309 h 28.43909 c 0.31755,0 0.5731,-0.25554 0.5731,-0.57309 0,-0.31755 -0.25555,-0.57309 -0.5731,-0.57309 z m 0,20.19359 c -0.31754,0 -0.57309,0.25557 -0.57309,0.57309 0,0.31756 0.25555,0.57362 0.57309,0.57362 h 28.43909 c 0.31755,0 0.5731,-0.25606 0.5731,-0.57362 0,-0.31752 -0.25555,-0.57309 -0.5731,-0.57309 z" />
      <path
         id="path4815"
         style="fill:#ececec;fill-opacity:1;stroke:none;stroke-width:0.128114"
         d="m -140.31681,356.57987 c -0.34182,-6.5e-4 -0.68257,0.01 -1.02173,0.029 -5.42657,0.31743 -10.42064,3.20781 -14.41176,7.69004 -0.17679,0.20016 -0.37827,0.69067 0.0798,1.10262 5.83249,4.91827 10.24719,7.77617 14.9844,7.90682 4.73719,0.13074 9.50449,-2.48771 15.99934,-8.01083 0.36403,-0.41162 0.31356,-0.86235 0.0509,-1.12654 -5.14546,-5.24505 -10.55364,-7.58127 -15.68093,-7.59122 z m 3.60314,1.9821 c 3.37347,0.81101 6.85487,2.77288 10.31887,6.1196 -4.22408,3.51336 -7.60075,5.6471 -10.61734,6.56272 a 7.377987,7.377987 0 0 0 3.76811,-6.43202 7.377987,7.377987 0 0 0 -3.46964,-6.2503 z m -3.90838,0.23232 a 6.0179893,6.0179893 0 0 1 6.01797,6.01798 6.0179893,6.0179893 0 0 1 -6.01797,6.01798 6.0179893,6.0179893 0 0 1 -6.018,-6.01798 6.0179893,6.0179893 0 0 1 6.018,-6.01798 z m -4.2495,0.006 a 7.377987,7.377987 0 0 0 -3.12852,6.0112 7.377987,7.377987 0 0 0 3.09624,5.9877 c -2.69483,-1.10635 -5.60551,-3.14482 -9.10228,-6.04466 2.71168,-2.86738 5.81171,-4.94846 9.13456,-5.95424 z m 4.31167,2.66748 a 3.3871541,3.3871541 0 0 0 -3.38716,3.38716 3.3871541,3.3871541 0 0 0 3.38716,3.38716 3.3871541,3.3871541 0 0 0 3.38713,-3.38716 3.3871541,3.3871541 0 0 0 -0.28052,-1.34928 1.6775998,1.6775998 0 0 1 -1.47721,0.88626 1.6775998,1.6775998 0 0 1 -1.67763,-1.67765 1.6775998,1.6775998 0 0 1 0.52161,-1.21301 3.3871541,3.3871541 0 0 0 -0.47338,-0.0334 z" />
    </g>
    <g
       id="g25995"
       transform="matrix(2.1277051,0,0,2.1277051,79.056007,-501.5941)"
       inkscape:export-filename="C:\Users\zoser\Desktop\Icons\take.png"
       inkscape:export-xdpi="104.38712"
       inkscape:export-ydpi="104.38712"
       style="fill:#ececec">
      <path
         id="path2880-8"
         style="fill:#ececec;fill-opacity:1;stroke:none;stroke-width:0.377353"
         d="m -101.68389,351.58739 a 9.976617,9.976617 0 0 0 -9.97653,9.97653 9.976617,9.976617 0 0 0 9.97653,9.97653 9.976617,9.976617 0 0 0 9.976529,-9.97653 9.976617,9.976617 0 0 0 -0.82622,-3.97454 4.9412488,4.9412488 0 0 1 -4.35032,2.60991 4.9412488,4.9412488 0 0 1 -4.941169,-4.94137 4.9412488,4.9412488 0 0 1 1.53545,-3.57245 9.976617,9.976617 0 0 0 -1.39427,-0.0981 z"
         inkscape:export-filename="C:\Users\zoser\Desktop\Icons\main.png"
         inkscape:export-xdpi="80.852684"
         inkscape:export-ydpi="80.852684" />
      <path
         id="path7996"
         style="fill:#ececec;fill-opacity:1;stroke-width:2;stroke-miterlimit:4;stroke-dasharray:none"
         d="m -101.68389,346.92579 a 14.638361,14.638361 0 0 0 -14.63839,14.63838 14.638361,14.638361 0 0 0 14.63839,14.63786 14.638361,14.638361 0 0 0 14.638379,-14.63786 14.638361,14.638361 0 0 0 -14.638379,-14.63838 z m 0,1.58698 a 13.051069,13.051069 0 0 1 13.050879,13.0514 13.051069,13.051069 0 0 1 -13.050879,13.05089 13.051069,13.051069 0 0 1 -13.05089,-13.05089 13.051069,13.051069 0 0 1 13.05089,-13.0514 z" />
    </g>
    <rect
       style="fill:#c8b7b7;fill-opacity:1;stroke:none;stroke-width:1.8355;stroke-miterlimit:4;stroke-dasharray:none"
       id="rect36815"
       width="37.389553"
       height="37.389553"
       x="-75.254028"
       y="268.96774"
       ry="0.5260427"
       inkscape:export-filename="C:\Users\zoser\Desktop\Icons\options.png"
       inkscape:export-xdpi="179.94293"
       inkscape:export-ydpi="179.94293" />
    <g
       id="g31262"
       transform="translate(-114.59835,-73.215228)"
       style="fill:#ececec;fill-opacity:1"
       inkscape:export-filename="C:\Users\zoser\Desktop\Icons\options.png"
       inkscape:export-xdpi="179.94293"
       inkscape:export-ydpi="179.94293">
      <path
         id="path26001"
         style="fill:#ececec;fill-opacity:1;stroke-width:1"
         d="m 42.68629,342.63328 c -1.51229,0 -2.73007,1.21725 -2.73007,2.72955 v 31.38207 c 0,1.51228 1.21778,2.73005 2.73007,2.73005 h 30.70614 c 1.51229,0 2.72954,-1.21777 2.72954,-2.73005 v -31.38207 c 0,-1.5123 -1.21725,-2.72955 -2.72954,-2.72955 z m 0.12299,1.50792 h 30.46015 c 0.72172,0 1.30225,0.58105 1.30225,1.30276 v 31.17587 c 0,0.72173 -0.58053,1.30278 -1.30225,1.30278 H 42.80928 c -0.72171,0 -1.30276,-0.58105 -1.30276,-1.30278 v -31.17587 c 0,-0.72171 0.58105,-1.30276 1.30276,-1.30276 z"
         sodipodi:nodetypes="ssssssssssssssssss" />
      <path
         id="path26533"
         style="fill:#ececec;fill-opacity:1;stroke:none;stroke-width:0.324305"
         d="m 57.398154,346.61617 -0.975884,2.15656 -0.07438,0.76452 0.191129,1.30353 -2.307666,0.61858 -0.486293,-1.22491 -0.446753,-0.6247 -1.923525,-1.37934 -1.109581,0.64071 0.232555,2.35522 0.318233,0.69953 0.81724,1.03332 -1.689558,1.68957 -1.032849,-0.81772 -0.699548,-0.31775 -2.355685,-0.23303 -0.640703,1.11006 1.379327,1.92351 0.62517,0.44629 1.224445,0.4863 -0.618107,2.30812 -1.303534,-0.19159 -0.764986,0.0743 -2.156081,0.97587 v 1.28189 l 2.156081,0.97588 0.764986,0.0744 1.303534,-0.19113 0.618107,2.30768 -1.224445,0.48628 -0.62517,0.44677 -1.379327,1.9235 0.640703,1.10958 2.355685,-0.23254 0.699548,-0.31824 1.032849,-0.81771 1.689558,1.69003 -0.81724,1.03285 -0.318233,0.69954 -0.232555,2.3557 1.109581,0.6407 1.923525,-1.37933 0.446753,-0.62516 0.486293,-1.22445 2.307666,0.6181 -0.191129,1.30353 0.07438,0.76452 0.975884,2.15655 h 1.281409 l 0.976357,-2.15655 0.07438,-0.76452 -0.191602,-1.30353 2.308139,-0.6181 0.485824,1.22445 0.446752,0.62516 1.923525,1.37933 1.110051,-0.6407 -0.233025,-2.3557 -0.317763,-0.69954 -0.81771,-1.03285 1.689558,-1.69003 1.033319,0.81771 0.699548,0.31824 2.355212,0.23254 0.640706,-1.10958 -1.379328,-1.9235 -0.624699,-0.44677 -1.224918,-0.48628 0.61858,-2.30768 1.303534,0.19113 0.764516,-0.0744 2.156551,-0.97588 v -1.28189 l -2.156551,-0.97587 -0.764516,-0.0743 -1.303534,0.19159 -0.61858,-2.30812 1.224918,-0.4863 0.624699,-0.44629 1.379328,-1.92351 -0.640706,-1.11006 -2.355212,0.23303 -0.699548,0.31775 -1.033319,0.81772 -1.689558,-1.68957 0.81771,-1.03332 0.317763,-0.69953 0.233025,-2.35522 -1.110051,-0.64071 -1.923525,1.37934 -0.446752,0.6247 -0.485824,1.22491 -2.308139,-0.61858 0.191602,-1.30353 -0.07438,-0.76452 -0.976357,-2.15656 z m 0.640706,5.94759 a 8.4906316,8.4906316 0 0 1 8.490629,8.49064 8.4906316,8.4906316 0 0 1 -8.490629,8.49063 8.4906316,8.4906316 0 0 1 -8.490629,-8.49063 8.4906316,8.4906316 0 0 1 8.490629,-8.49064 z" />
      <circle
         style="fill:#ececec;fill-opacity:1;stroke:none;stroke-width:2;stroke-miterlimit:4;stroke-dasharray:none"
         id="path31097"
         cx="58.039097"
         cy="361.05411"
         r="4.320962" />
    </g>
  </g>
</svg>
